<?xml version="1.0" encoding="utf-8"?>
<!-- Generator: Adobe Illustrator 22.1.0, SVG Export Plug-In . SVG Version: 6.00 Build 0)  -->
<svg version="1.1" id="Layer_1" xmlns="http://www.w3.org/2000/svg" xmlns:xlink="http://www.w3.org/1999/xlink" x="0px" y="0px"
	 viewBox="0 0 4750 900" style="enable-background:new 0 0 4750 900;" xml:space="preserve">
<style type="text/css">
	.st0{enable-background:new    ;}
	.st1{fill:#646464;}
</style>
<g>
	<path d="M490.6,663.7c-31.9-0.7-74.8-10.1-110.7-39.4c-10.6-8.6-19.2-20.2-26.9-31.7c-6.8-10.2-3.5-20.5,6.7-27.3
		c10.4-6.9,20.8-6.9,29.9,2.9c80.6,87,218.7,62,263-47.6c7-17.3,17.6-23.3,31.8-17.9c13.4,5,16.3,14.8,9.9,33.7
		C668.2,614,593.8,663.8,490.6,663.7z"/>
	<path d="M524.1,406.8c-5.3-17.1-3.9-35.7,4.4-51.6c0.5-1,1.1-2,1.6-2.9c10-16.8,27.1-21.9,43.5-15.2c16,6.5,23.2,22.4,19.3,41.9
		c-1.1,5.5-1.7,11.2-1.7,16.8c-0.1,19.5-11.2,33.9-28.4,36.4c-17.5,2.6-33-7.2-38.6-25C524.2,407,524.2,406.9,524.1,406.8z"/>
	<path d="M445.4,450.9c-22.6-0.3-42.3-23.2-42.2-49.2c0.1-23.9,15.2-41,36.2-40.6c28.9,0.6,35.8,24.3,39.8,56.3
		C481.7,437.5,465.8,451.2,445.4,450.9z"/>
	<path d="M699.6,176.4C633.1,143.1,561.1,137.6,488,142c-5.8,0.4-11.5,0.8-17.3,1.3c-11.6,1.4-17.2,3-17.2,3l31.8-16.4l0,0
		c9.7-5.1,19.4-10.1,29.2-15c15.9-7.9,22.2-19.9,15.9-33.4c-7.9-16.9-21.7-12.3-32.6-5.7c-36.2,22-72.5,44.2-107,68.8
		c-14.1,10-27.8,17.3-44.4,22.3c-39,11.7-77.6,25.1-116,38.7c-14.6,5.2-20.2,19.4-14.8,32.6c6.6,16.2,18.5,12.3,30.6,7.7
		c9.7-3.7,19.5-7.3,29.2-10.9l0,0l43.8-17c0,0-4.7,3.8-11.7,10.8c-1.2,1.6-2.3,3.1-3.6,4.6c-54.6,61-85.7,133.2-97.2,213.4
		c-6.3,43.6-12,88.3-9.5,132c4.4,78.2,44.6,139,108.7,182.7c75.6,51.6,159.2,86,250.5,59.3C719.4,773,822.1,662,856.8,495.5
		C884.8,360.8,821,237.2,699.6,176.4z M685.1,704.8c-41.8,36.3-88.3,65.3-143.5,76.5c-67.9,13.8-129.3-5.8-187.1-40
		c-58-34.3-100.6-81-114.3-149.4c-2.2-10.8-3.7-22-3.3-33c4.9-134.3,44.6-254.3,145.3-348.7c4.5-4.2,9.8-9.3,15.5-10.5
		c82.4-17.1,165.3-25.3,247.4,0.4c107.8,33.7,174,126.2,173.8,255.8C815,548.8,765.6,634.9,685.1,704.8z"/>
</g>
<g class="st0">
	<path class="st1" d="M1327.6,824.7c-32.8,0-53-14.2-60.6-42.6c-20.4,30-52.4,45-96,45c-32.4,0-58.3-8-77.7-24
		c-19.4-16-29.1-37.4-29.1-64.2c0-33.2,14.2-57.6,42.6-73.2c10.8-6,20.1-9.9,27.9-11.7c7.8-1.8,23.5-4.1,47.1-6.9
		c33.6-3.6,55.5-8.6,65.7-15c10.2-6.4,15.3-18.2,15.3-35.4c0-16.4-5.7-29.3-17.1-38.7c-11.4-9.4-27.3-14.1-47.7-14.1
		c-18,0-34.8,5-50.4,15c-6,4-9,8.2-9,12.6c0,1.6,1.8,3.6,5.4,6c5.6,4,8.4,10.8,8.4,20.4c0,8-2.9,14.6-8.7,19.8
		c-5.8,5.2-13.1,7.8-21.9,7.8c-10.4,0-19.1-3.6-26.1-10.8c-7-7.2-10.5-16-10.5-26.4c0-22.4,11.1-41.6,33.3-57.6
		c22.2-16,49.1-24,80.7-24c72.8,0,109.2,34.9,109.2,104.8v120.9c0,19.2,0.4,30.5,1.2,34.1c2.4,14,9.2,21,20.4,21
		c14,0,21-12.7,21-38.1v-29.2c0-12.7,6.1-19.1,18.3-19.1c13,0,19.5,9.6,19.5,28.8v3v34.2C1388,805.5,1367.6,824.7,1327.6,824.7z
		 M1261,705.3v-42.6c-8.8,8-18,13.6-27.8,16.8c-9.8,3.2-27.2,6-52.3,8.4c-45.4,4.4-68.1,21.2-68.1,50.4c0,15.2,5.5,27.2,16.5,36
		c11,8.8,25.9,13.2,44.7,13.2c26.8,0,47.9-7.3,63.3-21.9C1252.7,751,1260.6,730.9,1261,705.3z"/>
	<path class="st1" d="M1502.2,566.5v186.3c0.4,20.4,5.9,30.6,16.4,30.6c2.4,0,7.5-1,15.2-3c4.8-0.8,8.1-1.2,9.7-1.2
		c13.3,0,20,6.8,20,20.4c0,13.2-8.2,19.8-24.5,19.8c-6.4,0-16.5-0.8-30.5-2.4c-13.9-1.6-24.7-2.4-32.3-2.4c-6.4,0-15.9,0.8-28.7,2.4
		c-12.8,1.6-22.1,2.4-28.1,2.4h-3c-16.7,0-25.1-7.2-25.1-21.6c0-12.4,6.9-18.6,20.6-18.6c0.8,0,2.2,0,4.2,0c2.4,0.6,4.2,0.8,5.5,0.8
		c10.1,2.2,15.9,3.4,17.6,3.4c7.3,0,11.8-3.1,13.6-9.3c1.8-6.2,2.9-22.4,3.3-48.5l0.6-42.2V590V482.9c-0.4-12-1-20.1-1.8-24.1
		c-2.8-9.2-8.4-13.8-16.8-13.8c-1.2,0-6.4,0.8-15.6,2.4c-4.4,0.8-8,1.2-10.8,1.2c-13.6,0-20.4-6.4-20.4-19.2c0-13.2,8-19.8,24-19.8
		c4.4,0,8.2,0.2,11.4,0.6l14.4,1.8c6.4,0.8,11.8,1.2,16.2,1.2c4,0,10-0.6,18-1.8c8-1.2,14-1.8,18-1.8c9.2,0,13.8,5.8,13.8,17.4
		c0,4-0.2,7-0.6,9C1503.6,466.6,1502.2,510.2,1502.2,566.5z"/>
	<path class="st1" d="M1690.6,642.9v78c0,20,0.2,31.8,0.6,35.4c2,18,7.4,27,16.2,27c2,0,7-1,15-3c2-0.8,5-1.2,9-1.2
		c15.2,0,22.8,6.6,22.8,19.8c0,5.6-2.5,10.4-7.5,14.4c-5,4-11.3,6-19,6c-6.4,0-16.2-0.9-29.2-2.7c-13-1.8-22.8-2.7-29.2-2.7
		c-10.4,0-22.1,0.8-34.9,2.4c-15.7,2-26.1,3-31.3,3c-16.1,0-24.1-6.8-24.1-20.4c0-13.2,6.9-19.8,20.6-19.8c3.2,0,8,0.6,14.2,1.8
		c6.3,1.2,11,1.8,14.2,1.8c9.7,0,15.5-12.8,17.6-38.4c0-1.6,0-19,0-52.2v-49.2c0-33.2,0-50.6,0-52.2c-2-25.2-8.1-37.8-18.2-37.8
		c-3.2,0-7.8,0.7-13.6,2.1c-5.9,1.4-10.2,2.1-13,2.1c-14.5,0-21.8-6.4-21.8-19.2c0-13.6,8.8-20.4,26.4-20.4c7.6,0,13,0.2,16.2,0.6
		c12.8,1.6,21,2.4,24.6,2.4c3.2,0,8.1-0.5,14.7-1.5c6.6-1,11.5-1.5,14.7-1.5c11.6,0,17.4,7.8,17.4,23.4c0,1.6-0.2,4-0.5,7.2
		c-0.3,3.2-0.5,5.6-0.5,7.2c-0.3,3.2-0.6,15.6-1,37.2C1690.7,608.9,1690.6,625.7,1690.6,642.9z M1659.4,485.7
		c-9.2,0-17.1-3.3-23.7-9.9c-6.6-6.6-9.9-14.5-9.9-23.7c0-9.2,3.3-17,9.9-23.4c6.6-6.4,14.5-9.6,23.7-9.6c9.2,0,17.1,3.2,23.7,9.6
		c6.6,6.4,9.9,14.2,9.9,23.4c0,9.2-3.3,17.1-9.9,23.7C1676.5,482.4,1668.6,485.7,1659.4,485.7z"/>
	<path class="st1" d="M1869.4,534.9v17.4c14.4-17.2,28-29.1,40.8-35.7c12.8-6.6,28.8-9.9,48-9.9c39.2,0,68,15.2,86.4,45.6
		c13.6-16.8,27.4-28.6,41.4-35.4c14-6.8,32-10.2,54-10.2c22.8,0,43.2,4.8,61.2,14.4c20,10.8,33.8,26.1,41.4,45.7
		c5.2,13.2,7.8,34.1,7.8,62.5v58.3v45.1c0,16.4,0.2,26.5,0.6,30.1c2,14.4,7.1,21.6,15.5,21.6c2.8,0,6.9-0.7,12.5-2.1
		c5.5-1.4,9.7-2.1,12.5-2.1c13.9,0,20.8,6,20.8,18c0,14-8,21-24,21c-6,0-15.1-0.7-27.3-2.1c-12.2-1.4-21.5-2.1-27.9-2.1
		c-6.8,0-16.7,0.7-29.7,2.1c-13,1.4-22.9,2.1-29.7,2.1c-16.8,0-25.2-7-25.2-21c0-12,6.4-18,19.2-18c1.6,0,5.6,0.4,12,1.2
		c2.4,0.8,5.6,1.2,9.6,1.2c6.8,0,11.1-3.4,12.9-10.2c1.8-6.8,2.9-23.8,3.3-51v-36.6v-39.6c0-27.6-2.1-47.7-6.3-60.3
		c-4.2-12.6-12.1-22.5-23.6-29.7c-11.5-7.2-24.7-10.8-39.4-10.8c-28.3,0-48,9.8-59.1,29.4c-8.8,15.6-13.1,42.8-13.1,81.6v42.6
		c0,37.6,0.9,61.1,2.7,70.5c1.8,9.4,6.5,14.1,14.1,14.1c2.4,0,5.9-0.4,10.5-1.2c4.6-0.8,8.1-1.2,10.5-1.2c5.6,0,10.3,1.9,14.1,5.6
		c3.8,3.8,5.7,8.4,5.7,13.9c0,13-9.4,19.5-28.2,19.5c-6,0-14.9-0.8-26.7-2.4c-11.8-1.6-20.7-2.4-26.7-2.4c-8.4,0-17.6,0.8-27.6,2.4
		c-10,1.6-18.8,2.4-26.4,2.4c-16.4,0-24.6-6.8-24.6-20.4c0-12.4,6-18.6,18-18.6c4.4,0,7.8,0.6,10.2,1.7c5.6,1.7,9.8,2.5,12.6,2.5
		c9.6,0,14.6-10.2,15-30.8l1.8-28.3c0-8.8,0-17.5,0-25.9c0-7.2,0-11.1,0-11.5V638c0-35-4.7-59.3-14.1-73
		c-9.4-13.7-26.1-20.5-50.1-20.5c-26.4,0-46.6,9.6-60.6,28.9c-11.6,15.7-17.4,43-17.4,82v80.2c0,16.1,0.2,25.5,0.6,28.3
		c1.6,13.7,6,20.5,13.2,20.5c2,0,6.2-1.1,12.6-3.4c0.8,0,2-0.3,3.6-0.8c1.6,0,3,0,4.2,0c15.6,0,23.4,6.6,23.4,19.8
		c0,12.8-9,19.2-27,19.2c-6.8,0-15.2-0.6-25.2-1.8c-13.6-1.6-25.2-2.4-34.8-2.4c-4.8,0-13.6,0.6-26.4,1.8
		c-17.2,1.6-27.6,2.4-31.2,2.4c-16,0-24-6.8-24-20.4c0-12.4,7.7-18.6,23.2-18.6c0.8,0,2,0,3.7,0c1.6,0.4,2.9,0.6,3.7,0.6l15.3,3
		c0.4,0.4,1.2,0.6,2.4,0.6c11,0,16.9-9.8,17.7-29.4v-34.2v-91.8c0-34-0.9-55.2-2.7-63.6c-1.8-8.4-6.7-12.6-14.7-12.6
		c-1.6,0-7.2,1-16.8,3c-4,0.8-7.2,1.2-9.6,1.2c-14.8,0-22.2-6.4-22.2-19.2c0-13.6,8.2-20.4,24.6-20.4c4.4,0,10.4,0.4,18,1.2
		c7.6,0.8,14.2,1.2,19.8,1.2c2,0,4.2,0,6.6,0c2.4,0,3.8,0,4.2,0l14.4-2.4h1.8C1864.6,517.5,1869.4,523.3,1869.4,534.9z"/>
	<path class="st1" d="M2827.6,510.9c0,40.8-23.2,69.6-69.6,86.4c16.8,5.2,30.6,11,41.4,17.4c32.4,18.8,48.6,47,48.6,84.6
		c0,36.8-14.2,66.1-42.6,87.9c-28.4,21.8-66.4,32.7-114,32.7c-17.2,0-39-1-65.4-3c-26.4-2-45.8-3-58.2-3c-10.8,0-21,0.6-30.6,1.8
		l-28.2,3.6c-0.8,0-2.2,0.2-4.2,0.6c-2,0-3.4,0-4.2,0c-17.2-0.4-25.8-7.6-25.8-21.6c0-12.8,6.2-19.2,18.6-19.2
		c3.2,0,8.6,0.6,16.2,1.8c5.2,0.8,9.4,1.2,12.6,1.2c20.4,0,30.6-14.8,30.6-44.4V496.5c0-30-10.2-45-30.6-45c-3.6,0-7.8,0.4-12.6,1.2
		c-7.2,1.2-12.6,1.8-16.2,1.8c-12.4,0-18.6-6.4-18.6-19.2c0-14,9.2-21,27.6-21h7.8l29.4,4.2c8.4,1.2,19.8,1.8,34.2,1.8
		c15.2,0,36.8-1.2,64.8-3.6c18.8-1.6,39-2.4,60.6-2.4c40.4,0,71.9,8.5,94.5,25.5C2816.3,456.8,2827.6,480.5,2827.6,510.9z
		 M2597.8,536.7c0,21.2,1.9,34.3,5.7,39.3c3.8,5,14.3,7.5,31.5,7.5h33.6c70.8,0,106.2-23,106.2-69c0-42-29.2-63-87.6-63
		c-40.8,0-65.9,2.6-75.3,7.8c-9.4,5.2-14.1,18.6-14.1,40.2V536.7z M2597.8,658.5v66.6c0,26,4.4,42,13.2,48c8.8,6,32.8,9,72,9
		c74.8,0,112.2-28,112.2-84c0-51.6-36-77.4-108-77.4h-49.8c-21.6,0-34,4.8-37.2,14.4C2598.6,639.9,2597.8,647.7,2597.8,658.5z"/>
	<path class="st1" d="M3073.6,830.1c-53.2,0-95.3-19.2-126.3-57.6c-31-38.4-46.5-90.4-46.5-156c0-66.4,15.6-118.5,46.8-156.3
		c31.2-37.8,74.2-56.7,129-56.7c52.4,0,94.1,18.4,125.1,55.2c31,36.8,46.5,86.6,46.5,149.4c0,68-15.7,122-47.1,162
		C3169.7,810.1,3127.2,830.1,3073.6,830.1z M3074.8,446.7c-38.4,0-68.2,14.8-89.4,44.4c-21.2,29.6-31.8,71.2-31.8,124.8
		c0,54.4,10.6,96.5,31.8,126.3c21.2,29.8,50.8,44.7,88.8,44.7c37.2,0,66.7-15.5,88.5-46.5c21.8-31,32.7-73.1,32.7-126.3
		c0-53.6-10.4-94.9-31.2-123.9C3143.4,461.2,3113.6,446.7,3074.8,446.7z"/>
	<path class="st1" d="M3411.4,729c0,23.5,2.4,37.4,7.2,41.8c3.6,3.6,8.3,5.8,14.1,6.6c5.8,0.8,18.9,1.2,39.3,1.2h52.8
		c27.6,0,46-3.6,55.2-10.9c9.2-7.3,13.8-22,13.8-44.1c0-5.9-0.2-12.8-0.6-20.7c-0.8-15.4-1.2-24.7-1.2-27.8c0-17.4,7-26,21-26
		c16.8,0,25.2,8,25.2,24c0,4.8-0.2,8.6-0.6,11.4l-4.2,30.6c-1.2,8.8-1.8,18-1.8,27.6c0,5.6,0.5,13.9,1.5,24.9
		c1,11,1.5,19.3,1.5,24.9c0,18-10.2,27-30.6,27c-4,0-13.2-0.7-27.6-2.1c-9.6-0.7-24.4-1.4-44.4-2.1h-45h-96c-9.6,0-25.6,0.8-48,2.4
		c-3.2,0-8.7,0.3-16.5,0.9s-13.9,0.9-18.3,0.9c-16.8,0-25.2-7.2-25.2-21.6c0-12.8,6.2-19.2,18.6-19.2c3.2,0,8,0.6,14.4,1.8
		c6.4,1.2,11.2,1.8,14.4,1.8c20.4,0,30.6-15,30.6-45V496.5c0-29.6-10.2-44.4-30.6-44.4c-5.6,0-9.8,0.4-12.6,1.2
		c-6.4,1.2-11.8,1.8-16.2,1.8c-5.2,0-9.6-1.9-13.2-5.7c-3.6-3.8-5.4-8.5-5.4-14.1c0-14,8.6-21,25.8-21c2.4,0,5.4,0.2,9,0.6l31.8,3.6
		c17.6,2,30.6,3,39,3c10.4,0,23.2-1,38.4-3l27.6-3.6c3.2-0.4,5.8-0.6,7.8-0.6c18,0,27,7,27,21c0,5.6-1.8,10.3-5.4,14.1
		c-3.6,3.8-8,5.7-13.2,5.7c-4,0-9.4-0.6-16.2-1.8c-2.8-0.8-7-1.2-12.6-1.2c-20.4,0-30.6,14.7-30.6,44.2V729z"/>
	<path class="st1" d="M3982.6,749.1l-21.6-58.8c-2.4-6.4-4.9-10.4-7.5-12c-2.6-1.6-7.9-2.4-15.9-2.4h-106.8c-8,0-13.5,1.4-16.5,4.2
		c-3,2.8-6.9,10.4-11.7,22.8l-17.4,46.2c-1.6,4.4-2.4,8.6-2.4,12.6c0,12.8,7.8,19.2,23.4,19.2c4,0,9.7-0.4,17.1-1.2
		c7.4-0.8,12.9-1.2,16.5-1.2c16.4,0,24.6,7,24.6,21c0,13.2-9,19.8-27,19.8c-3.2,0-7.6-0.4-13.2-1.2l-30-3.7
		c-5.6-0.7-14.8-1.1-27.6-1.1c-14,0-23.8,0.3-29.4,1l-25.2,3c-11.2,1.3-19.4,2-24.6,2c-15.6,0-23.4-6.6-23.4-19.8
		c0-14,7.6-21,22.8-21c3.2,0,5.6,0.8,7.2,2.4h7.8c10.8,0,19-4.2,24.6-12.6c2.4-3.2,6.4-12.6,12-28.3L3850,437.2
		c6.4-16.9,19-25.3,37.8-25.3c18.4,0,30.6,8.4,36.6,25.2l107.4,297.6c6.8,18.8,13,31.2,18.6,37.2c5.6,6,13.6,9,24,9
		c3.2,0,5.6-0.3,7.2-0.8l16.8-1.6c15.2,0,22.8,6.6,22.8,19.8c0,14-7.6,21-22.8,21c-4.4,0-10.2-0.5-17.4-1.3
		c-25.2-3.1-44-4.7-56.4-4.7c-14.8,0-38.8,1.6-72,4.8c-8.4,0.8-14.8,1.2-19.2,1.2c-16,0-24-6.8-24-20.4c0-13.6,8.8-20.4,26.4-20.4
		c3.6,0,8.9,0.4,15.9,1.2c7,0.8,12.3,1.2,15.9,1.2c13.2,0,19.8-5.4,19.8-16.2C3987.4,763.1,3985.8,757.9,3982.6,749.1z
		 M3939.4,626.7l-54-165.6l-55.2,165.6c-0.8,2.4-1.2,3.8-1.2,4.2c0,3.6,3,5.4,9,5.4h95.4c4.8,0,7.2-1.6,7.2-4.8
		C3940.6,630.7,3940.2,629.1,3939.4,626.7z"/>
	<path class="st1" d="M4438.5,595.5c-11.6,5.6-26.4,10.4-44.4,14.4c23.4,4.4,39.5,13.2,48.4,26.3c8.9,13.2,13.4,34.9,13.4,65.2v27.5
		c0,1.6,0,4,0,7.2c0,28.7,9.1,43.1,27.3,43.1c18.6,0,27.9-17,27.9-51.1v-17.8v-14.9V687c0-11.5,0.8-19.4,2.4-23.8
		c3.2-6.7,9.4-10.1,18.6-10.1c14.4,0,21.6,8.4,21.6,25.2c0,0.4-0.2,4.8-0.6,13.2v12.6c0,8.4,0,13.8,0,16.2v15
		c-0.4,2.4-0.6,6-0.6,10.8c0,23.2-6.5,41.3-19.5,54.3c-13,13-31.1,19.5-54.3,19.5c-47.2,0-70.8-23.8-70.8-71.4v-18v-20.4v-13.2
		c0-26.8-5.1-44.5-15.2-53.1c-10.2-8.6-31.2-12.9-63-12.9h-55.6c-12.8,0-19.1,7.8-19.1,23.4v46.2c0,29.6,0.4,46.4,1.2,50.4
		c3.6,20,13.6,30,30,30c5.6,0,9.8-0.2,12.6-0.7c6.8-0.7,12-1.1,15.6-1.1c12.8,0,19.2,6.6,19.2,19.8c0,14-8.6,21-25.8,21l-9-1.2
		l-32.4-4.2c-12.4-1.6-23.4-2.4-33-2.4c-12,0-26,1-42,3l-28.8,3.6c-6.4,0.8-9.4,1.2-9,1.2c-17.2,0-25.8-7.2-25.8-21.6
		c0-12.8,6.2-19.2,18.6-19.2c2,0,7.4,0.4,16.2,1.2c4.4,1.2,8.6,1.8,12.6,1.8c20.4,0,30.6-15,30.6-45V496.5c0-30-10.2-45-30.6-45
		c-3.2,0-8,0.5-14.4,1.5c-6.4,1-11.2,1.5-14.4,1.5c-5.2,0-9.6-1.9-13.2-5.7c-3.6-3.8-5.4-8.3-5.4-13.5c0-14,8.8-21,26.4-21
		c1.6,0,4.4,0.2,8.4,0.6l30.6,3c8,0.8,18,1.2,30,1.2c12.4,0,26.2-0.4,41.4-1.2l45.6-2.4c15.2-0.8,29.2-1.2,42-1.2
		c88,0,132,33.5,132,100.5C4484.1,554.3,4468.9,581.2,4438.5,595.5z M4272.3,590.7h56.4c33.6,0,58.8-4.8,75.6-14.4
		c20.4-11.6,30.6-31,30.6-58.2c0-45.6-31.3-68.4-93.9-68.4c-33.3,0-55.9,2.5-67.7,7.5c-11.8,5-18,14.9-18.4,29.7v19.2v69
		c0,6.8,1.2,11.1,3.6,12.9C4260.9,589.8,4265.5,590.7,4272.3,590.7z"/>
</g>
</svg>
