<?xml version="1.0" encoding="utf-8"?>
<!-- Generator: Adobe Illustrator 22.1.0, SVG Export Plug-In . SVG Version: 6.00 Build 0)  -->
<svg version="1.1" id="Layer_1" xmlns="http://www.w3.org/2000/svg" xmlns:xlink="http://www.w3.org/1999/xlink" x="0px" y="0px"
	 viewBox="0 0 1060 900" style="enable-background:new 0 0 1060 900;" xml:space="preserve">
<g>
	<path d="M490.7,663.8c-31.9-0.7-74.8-10.1-110.7-39.4c-10.6-8.6-19.2-20.2-26.9-31.7c-6.8-10.2-3.5-20.5,6.7-27.3
		c10.4-6.9,20.8-6.9,29.9,2.9c80.6,87,218.7,62,263-47.6c7-17.3,17.6-23.3,31.8-17.9c13.4,5,16.3,14.8,9.9,33.7
		C668.2,614.1,593.9,663.9,490.7,663.8z"/>
	<path d="M524.2,406.9c-5.3-17.1-3.9-35.7,4.4-51.6c0.5-1,1.1-2,1.6-2.9c10-16.8,27.1-21.9,43.5-15.2c16,6.5,23.2,22.4,19.3,41.9
		c-1.1,5.5-1.7,11.2-1.7,16.8c-0.1,19.5-11.2,33.9-28.4,36.4c-17.5,2.6-33-7.2-38.6-25C524.2,407,524.2,406.9,524.2,406.9z"/>
	<path d="M445.5,451c-22.6-0.3-42.3-23.2-42.2-49.2c0.1-23.9,15.2-41,36.2-40.6c28.9,0.6,35.8,24.3,39.8,56.3
		C481.8,437.6,465.9,451.3,445.5,451z"/>
	<path d="M699.7,176.5c-66.5-33.3-138.5-38.8-211.6-34.4c-5.8,0.4-11.5,0.8-17.3,1.3c-11.6,1.4-17.2,3-17.2,3l31.8-16.4l0,0
		c9.7-5.1,19.4-10.1,29.2-15c15.9-7.9,22.2-19.9,15.9-33.4c-7.9-16.9-21.7-12.3-32.6-5.7c-36.2,22-72.5,44.2-107,68.8
		c-14.1,10-27.8,17.3-44.4,22.3c-39,11.7-77.6,25.1-116,38.7c-14.6,5.2-20.2,19.4-14.8,32.6c6.6,16.2,18.5,12.3,30.6,7.7
		c9.7-3.7,19.5-7.3,29.2-10.9v0l43.8-17c0,0-4.7,3.8-11.7,10.8c-1.2,1.6-2.3,3.1-3.6,4.6c-54.6,61-85.7,133.2-97.2,213.4
		c-6.3,43.6-12,88.3-9.5,132c4.4,78.2,44.6,139,108.7,182.7c75.6,51.6,159.2,86,250.5,59.3C719.4,773,822.1,662,856.8,495.5
		C884.8,360.8,821.1,237.2,699.7,176.5z M685.1,704.8c-41.8,36.3-88.3,65.3-143.5,76.5c-67.9,13.8-129.3-5.8-187.1-40
		c-58-34.3-100.6-81-114.3-149.4c-2.2-10.8-3.7-22-3.3-33c4.9-134.3,44.6-254.3,145.3-348.7c4.5-4.2,9.8-9.3,15.5-10.5
		c82.4-17.1,165.3-25.3,247.4,0.4C753,233.9,819.2,326.4,818.9,456C815,548.8,765.6,635,685.1,704.8z"/>
</g>
</svg>
